<?xml version="1.0" encoding="UTF-8"?><svg id="Capa_1" xmlns="http://www.w3.org/2000/svg" viewBox="0 0 397.72 218"><defs><style>.cls-1{fill:#d0a128;}.cls-1,.cls-2{stroke-width:0px;}.cls-2{fill:#fff;}</style></defs><path class="cls-2" d="M117.76,1.76l-11.06,83.58h-33.02L61.13,1.76h22.92c2.66,23.02,4.57,42.5,5.71,58.44,1.12-16.11,2.31-30.41,3.58-42.9l1.51-15.54h22.92Z"/><path class="cls-2" d="M151.09,1.76v83.58h-21.73V1.76h21.73Z"/><path class="cls-2" d="M218.5,38.15h-21.73v-14.53c0-4.22-.23-6.86-.7-7.91-.46-1.05-1.49-1.57-3.07-1.57-1.79,0-2.93.64-3.41,1.91-.48,1.27-.72,4.03-.72,8.26v38.82c0,4.06.24,6.71.72,7.95.48,1.24,1.57,1.86,3.25,1.86s2.68-.62,3.18-1.86c.5-1.24.75-4.16.75-8.75v-10.51h21.73v3.26c0,8.65-.61,14.79-1.83,18.41-1.22,3.62-3.92,6.79-8.11,9.51-4.18,2.72-9.34,4.08-15.46,4.08s-11.62-1.15-15.75-3.46c-4.13-2.31-6.87-5.5-8.21-9.58s-2.01-10.21-2.01-18.4v-24.42c0-6.02.21-10.54.62-13.55.41-3.01,1.64-5.91,3.69-8.7,2.05-2.79,4.89-4.98,8.52-6.58,3.63-1.6,7.8-2.4,12.52-2.4,6.4,0,11.68,1.24,15.85,3.71,4.16,2.48,6.9,5.56,8.21,9.25,1.31,3.69,1.96,9.44,1.96,17.25v7.94Z"/><path class="cls-2" d="M286.03,1.76l-12.47,37.74,13.66,45.84h-22.46l-8.8-35.83v35.83h-21.74V1.76h21.74v32.47l9.68-32.47h20.39Z"/><path class="cls-2" d="M345.2,1.76l-15.85,53.33v30.25h-20.13v-30.25l-15.28-53.33h19.97c3.12,16.31,4.88,27.29,5.28,32.94,1.2-8.92,3.22-19.9,6.05-32.94h19.97Z"/><path class="cls-2" d="M99.81,111.32v30.84h-5.1v-23.12l-8.92,23.12h-4.44l-8.96-23.12v23.12h-5.06v-30.84h6.12l10.21,24.62,10.03-24.62h6.12Z"/><path class="cls-2" d="M110.95,110.84v31.32h-5.06v-31.32h5.06Z"/><path class="cls-2" d="M136.54,138.1c-.74,1.32-1.86,2.37-3.37,3.17-1.51.8-3.36,1.2-5.55,1.2s-4.04-.38-5.72-1.13c-1.69-.75-3.03-1.81-4.04-3.17-1.01-1.36-1.58-2.93-1.73-4.7h5.41c.15,1.36.73,2.53,1.75,3.51,1.02.98,2.39,1.46,4.1,1.46,1.54,0,2.73-.41,3.57-1.24.84-.83,1.26-1.89,1.26-3.19,0-1.12-.31-2.05-.93-2.77-.62-.72-1.39-1.29-2.31-1.71-.92-.41-2.17-.89-3.77-1.42-1.95-.62-3.54-1.24-4.77-1.86-1.23-.62-2.27-1.52-3.13-2.71-.86-1.18-1.29-2.74-1.29-4.66,0-1.69.41-3.16,1.24-4.44.83-1.27,2.01-2.25,3.55-2.95,1.54-.69,3.31-1.04,5.32-1.04,3.19,0,5.73.77,7.61,2.31,1.88,1.54,2.95,3.55,3.22,6.03h-5.46c-.21-1.18-.76-2.2-1.66-3.04-.9-.84-2.14-1.26-3.71-1.26-1.42,0-2.56.36-3.42,1.09-.86.73-1.29,1.77-1.29,3.13,0,1.06.29,1.95.89,2.64.59.7,1.34,1.24,2.24,1.64s2.14.87,3.71,1.4c1.98.62,3.6,1.25,4.86,1.89,1.26.64,2.32,1.56,3.19,2.77.87,1.21,1.31,2.81,1.31,4.79,0,1.54-.37,2.97-1.11,4.28Z"/><path class="cls-2" d="M170.97,142.16l-7.5-11.58-6.7,11.58h-5.81l9.72-15.97-9.94-15.35h6.03l7.37,11.36,6.66-11.36h5.81l-9.67,15.71,10.07,15.62h-6.03Z"/><path class="cls-2" d="M183.93,110.84l9.01,25.91,9.05-25.91h5.5l-11.31,31.32h-6.48l-11.27-31.32h5.5Z"/><path class="cls-2" d="M240.32,135.37h-13.22l-2.4,6.79h-5.41l11.54-30.84h5.81l11.49,30.84h-5.41l-2.4-6.79ZM238.9,131.47l-5.19-14.64-5.19,14.64h10.38Z"/><path class="cls-2" d="M277.24,142.16h-5.06l-15.22-23.12v23.12h-5.06v-31.28h5.06l15.22,23.2v-23.2h5.06v31.28ZM263.37,103.4c.43.19.97.48,1.62.87.44.33.85.57,1.22.73.37.16.76.24,1.18.24.5,0,.92-.18,1.26-.53.34-.35.57-.87.69-1.55h2.66c-.24,1.72-.78,3-1.62,3.86s-1.9,1.29-3.17,1.29c-.62,0-1.18-.1-1.66-.31-.49-.21-1.03-.5-1.62-.89-.56-.32-.98-.55-1.26-.69s-.61-.2-1-.2c-1.09,0-1.73.7-1.91,2.09h-2.71c.56-3.46,2.16-5.19,4.79-5.19.59,0,1.1.1,1.53.29Z"/><path class="cls-2" d="M305.74,112.48c2.35,1.36,4.2,3.26,5.55,5.7,1.35,2.44,2.02,5.2,2.02,8.27s-.67,5.83-2.02,8.27-3.19,4.35-5.55,5.72-4.98,2.06-7.88,2.06-5.57-.69-7.92-2.06-4.21-3.28-5.57-5.72c-1.36-2.44-2.04-5.2-2.04-8.27s.68-5.83,2.04-8.27c1.36-2.44,3.22-4.34,5.57-5.7,2.35-1.36,4.99-2.04,7.92-2.04s5.52.68,7.88,2.04ZM292.5,116.52c-1.57.92-2.79,2.23-3.66,3.95-.87,1.72-1.31,3.71-1.31,5.99s.44,4.27,1.31,5.99c.87,1.72,2.09,3.03,3.66,3.95,1.57.92,3.36,1.38,5.37,1.38s3.75-.46,5.3-1.38c1.55-.92,2.77-2.23,3.64-3.95.87-1.71,1.31-3.71,1.31-5.99s-.44-4.27-1.31-5.99c-.87-1.71-2.08-3.03-3.64-3.95-1.55-.92-3.32-1.38-5.3-1.38s-3.8.46-5.37,1.38Z"/><path class="cls-2" d="M337.89,138.1c-.74,1.32-1.86,2.37-3.37,3.17-1.51.8-3.36,1.2-5.55,1.2s-4.04-.38-5.72-1.13c-1.69-.75-3.03-1.81-4.04-3.17-1.01-1.36-1.58-2.93-1.73-4.7h5.41c.15,1.36.73,2.53,1.75,3.51s2.39,1.46,4.1,1.46c1.54,0,2.73-.41,3.57-1.24.84-.83,1.26-1.89,1.26-3.19,0-1.12-.31-2.05-.93-2.77-.62-.72-1.39-1.29-2.31-1.71-.92-.41-2.17-.89-3.77-1.42-1.95-.62-3.54-1.24-4.77-1.86-1.23-.62-2.27-1.52-3.13-2.71-.86-1.18-1.29-2.74-1.29-4.66,0-1.69.41-3.16,1.24-4.44.83-1.27,2.01-2.25,3.55-2.95,1.54-.69,3.31-1.04,5.32-1.04,3.19,0,5.73.77,7.61,2.31,1.88,1.54,2.95,3.55,3.22,6.03h-5.46c-.21-1.18-.76-2.2-1.66-3.04-.9-.84-2.14-1.26-3.7-1.26-1.42,0-2.56.36-3.42,1.09-.86.73-1.29,1.77-1.29,3.13,0,1.06.29,1.95.89,2.64.59.7,1.34,1.24,2.24,1.64.9.4,2.14.87,3.71,1.4,1.98.62,3.6,1.25,4.86,1.89,1.26.64,2.32,1.56,3.2,2.77.87,1.21,1.31,2.81,1.31,4.79,0,1.54-.37,2.97-1.11,4.28Z"/><rect class="cls-1" x="71.84" y="93.18" width="147.45" height="6.29"/><rect class="cls-1" x="192.96" y="154.33" width="147.45" height="6.29"/><rect class="cls-2" y="197.88" width="108.93" height="4.06"/><rect class="cls-2" x="286.62" y="197.88" width="111.1" height="4.06"/><path class="cls-2" d="M120.57,192.96v-3.46h7.3v22.82h-3.88v-19.36h-3.43Z"/><path class="cls-2" d="M130.49,192.96v-3.46h7.3v22.82h-3.88v-19.36h-3.43Z"/><path class="cls-2" d="M152.33,181.81l-8.79,36.2h-3.59l8.79-36.2h3.59Z"/><path class="cls-2" d="M152.63,192.96v-3.46h7.3v22.82h-3.88v-19.36h-3.43Z"/><path class="cls-2" d="M171.81,202.41c2.1-2.29,3.15-4.42,3.15-6.38,0-1.16-.29-2.09-.86-2.78-.57-.69-1.49-1.03-2.76-1.03s-2.31.43-2.97,1.28c-.67.85-1.04,2.06-1.13,3.64h-3.59c.15-2.61.95-4.6,2.41-5.98s3.31-2.07,5.57-2.07,3.96.59,5.22,1.76c1.26,1.18,1.89,2.8,1.89,4.86,0,1.66-.51,3.34-1.54,5.04s-2.32,3.27-3.89,4.7c-1.57,1.43-3.2,2.67-4.88,3.7h10.83v3.01h-15.84v-2.71c3.49-2.39,6.29-4.73,8.39-7.03Z"/><path class="cls-2" d="M192.8,181.81l-8.79,36.2h-3.59l8.79-36.2h3.59Z"/><path class="cls-2" d="M202.34,202.41c2.1-2.29,3.15-4.42,3.15-6.38,0-1.16-.29-2.09-.86-2.78-.57-.69-1.49-1.03-2.76-1.03s-2.31.43-2.97,1.28c-.67.85-1.04,2.06-1.13,3.64h-3.59c.15-2.61.95-4.6,2.41-5.98s3.31-2.07,5.57-2.07,3.96.59,5.22,1.76c1.26,1.18,1.89,2.8,1.89,4.86,0,1.66-.51,3.34-1.54,5.04-1.02,1.7-2.32,3.27-3.89,4.7-1.57,1.43-3.2,2.67-4.88,3.7h10.83v3.01h-15.84v-2.71c3.49-2.39,6.29-4.73,8.39-7.03Z"/><path class="cls-2" d="M212.67,200.75c0-3.62.65-6.45,1.94-8.5,1.29-2.05,3.45-3.07,6.46-3.07s5.17,1.03,6.46,3.09c1.29,2.06,1.94,4.89,1.94,8.48s-.65,6.46-1.94,8.53c-1.29,2.07-3.45,3.1-6.46,3.1s-5.17-1.03-6.46-3.09c-1.29-2.06-1.94-4.91-1.94-8.55ZM225.79,200.75c0-2.59-.32-4.57-.97-5.96-.65-1.39-1.9-2.08-3.75-2.08s-3.13.69-3.78,2.07c-.65,1.38-.97,3.37-.97,5.98s.32,4.64.97,6.04c.65,1.4,1.91,2.1,3.78,2.1s3.1-.7,3.75-2.1c.65-1.4.97-3.41.97-6.04Z"/><path class="cls-2" d="M240.8,202.41c2.1-2.29,3.15-4.42,3.15-6.38,0-1.16-.29-2.09-.86-2.78s-1.49-1.03-2.76-1.03-2.31.43-2.97,1.28c-.67.85-1.05,2.06-1.13,3.64h-3.59c.15-2.61.95-4.6,2.41-5.98,1.45-1.38,3.31-2.07,5.58-2.07s3.96.59,5.22,1.76c1.26,1.18,1.89,2.8,1.89,4.86,0,1.66-.51,3.34-1.54,5.04-1.02,1.7-2.32,3.27-3.89,4.7-1.57,1.43-3.2,2.67-4.88,3.7h10.83v3.01h-15.84v-2.71c3.49-2.39,6.29-4.73,8.39-7.03Z"/><path class="cls-2" d="M250.58,207.4v-3.1l11.34-15h3.94v14.87h3.2v3.23h-3.2v4.91h-3.72v-4.91h-11.57ZM262.41,193.7l-8.01,10.47h8.01v-10.47Z"/></svg>